<svg width="122" height="122" viewBox="0 0 122 122" fill="none" xmlns="http://www.w3.org/2000/svg">
<path fill-rule="evenodd" clip-rule="evenodd" d="M27.1268 10.3832C28.9581 9.06164 29.0832 7.56681 27.5024 5.89874C24.3443 3.24731 21.4649 3.49646 18.8644 6.64615C18.7477 2.22448 21.001 0.293654 25.6246 0.853726C27.9215 1.76971 29.236 3.45139 29.568 5.89874C30.638 12.2287 31.3891 18.5817 31.8214 24.9577C30.8705 25.8131 29.9943 25.6887 29.1924 24.584C28.4507 19.8543 27.7623 15.1207 27.1268 10.3832Z" fill="#DEAA4A"/>
<path fill-rule="evenodd" clip-rule="evenodd" d="M27.1269 10.3832C24.1525 11.765 21.586 11.2667 19.4279 8.88837C19.0042 8.19878 18.8165 7.45137 18.8645 6.64614C21.465 3.49645 24.3444 3.2473 27.5025 5.89873C29.0833 7.5668 28.9582 9.06162 27.1269 10.3832Z" fill="#F5C351"/>
<path fill-rule="evenodd" clip-rule="evenodd" d="M109 29.0685C105.145 28.5008 101.702 29.3727 98.672 31.6844C97.6249 33.1527 96.686 34.6475 95.8552 36.1689C96.5511 28.1559 100.932 24.6681 109 25.7051C109 26.8262 109 27.9473 109 29.0685Z" fill="#849444"/>
<path fill-rule="evenodd" clip-rule="evenodd" d="M63.1808 68.3075C63.0524 67.9943 62.8023 67.8695 62.4297 67.9338C62.3602 67.3 62.047 66.8019 61.4908 66.439C60.9233 67.3217 60.36 68.1935 59.8008 69.0549C58.3669 71.3263 56.6145 73.3817 54.5429 75.2211C52.5283 76.3138 51.2139 75.7532 50.5994 73.5394C50.2652 69.9339 50.578 66.3837 51.5384 62.8888C51.4133 62.7019 51.2878 62.5151 51.1628 62.3282C47.2156 63.6298 43.2095 63.9411 39.1447 63.2625C38.1731 62.6926 37.8603 61.8828 38.2058 60.8334C40.5381 57.2683 43.6053 54.4655 47.4071 52.425C45.0659 51.0767 42.8125 49.6443 40.647 48.1274C40.4998 46.75 41.1258 45.6913 42.5248 44.9509C46.4194 44.5447 50.2378 44.856 53.9795 45.8852C53.9288 44.1325 53.6783 42.3888 53.2284 40.6533C52.9779 38.2867 52.9779 35.9196 53.2284 33.5529C53.3689 33.2106 53.5566 32.8989 53.7917 32.6187C54.8136 32.3937 55.8149 32.4561 56.7963 32.8055C58.347 34.3878 59.7242 36.1319 60.9275 38.0374C62.8391 35.0758 64.9674 32.273 67.3121 29.629C68.8613 28.3652 70.3008 28.4272 71.631 29.8159C71.9837 31.0357 72.1715 32.2812 72.1944 33.5529C71.8605 36.4338 71.5477 39.299 71.2555 42.1482C75.2402 40.6948 79.3091 40.3835 83.4613 41.2139C84.2673 41.3929 84.6428 41.891 84.588 42.7087C84.4029 43.7622 83.9646 44.6964 83.2735 45.5115C80.862 47.8516 78.2958 49.9694 75.5745 51.8645C78.2267 53.5914 80.7929 55.4599 83.2735 57.4701C85.9855 61.1458 84.9842 63.0144 80.269 63.0756C77.5529 62.8701 74.8613 62.4964 72.1944 61.9545C71.9439 62.079 71.6938 62.2038 71.4433 62.3282C72.618 65.8545 73.0563 69.4667 72.7577 73.1657C72.049 75.6538 70.6091 76.0899 68.4387 74.4737C66.3713 72.6496 64.6185 70.5942 63.1808 68.3075Z" fill="#DD5061"/>
<path fill-rule="evenodd" clip-rule="evenodd" d="M56.7966 32.8055C55.8152 32.4561 54.814 32.3937 53.7921 32.6187C53.5569 32.8989 53.3692 33.2106 53.2287 33.5529C52.9782 35.9196 52.9782 38.2867 53.2287 40.6533C53.6786 42.3888 53.9291 44.1325 53.9798 45.8852C50.2381 44.856 46.4197 44.5447 42.5251 44.9509C41.1261 45.6912 40.5001 46.75 40.6473 48.1274C38.7819 46.8426 37.843 45.0989 37.8306 42.8956C37.9462 42.5936 38.134 42.3443 38.3939 42.1482C39.773 41.5951 41.2125 41.3458 42.7129 41.4007C45.5773 41.5783 48.3941 41.8899 51.1631 42.335C49.8471 38.5198 49.4088 34.5959 49.8486 30.5633C50.7992 28.9601 52.1137 28.6488 53.7921 29.629C54.8703 30.6392 55.8719 31.6979 56.7966 32.8055Z" fill="#D34158"/>
<path fill-rule="evenodd" clip-rule="evenodd" d="M109 29.0685C108.462 35.6404 104.832 38.8793 98.1086 38.7848C97.5013 38.5837 96.8753 38.4593 96.2308 38.4111C96.3314 37.8135 96.206 37.3154 95.8552 36.9163C95.8552 36.667 95.8552 36.4181 95.8552 36.1689C96.686 34.6475 97.6249 33.1527 98.672 31.6844C101.702 29.3727 105.145 28.5008 109 29.0685Z" fill="#94A94D"/>
<path fill-rule="evenodd" clip-rule="evenodd" d="M25.249 42.8956C22.3221 40.3028 19.5053 40.4273 16.7988 43.2693C16.4454 44.1015 16.0072 44.8489 15.4843 45.5115C13.8997 41.8761 14.9012 39.1978 18.4888 37.4769C22.6101 37.0344 24.8633 38.8409 25.249 42.8956Z" fill="#D24158"/>
<path fill-rule="evenodd" clip-rule="evenodd" d="M95.8553 36.9163C96.2061 37.3154 96.3315 37.8135 96.2309 38.4111C96.8753 38.4593 97.5014 38.5837 98.1087 38.7848C96.2309 40.7778 94.353 42.7711 92.4752 44.7641C90.407 45.5776 88.6542 46.8232 87.2173 48.5011C87.2639 48.728 87.389 48.8524 87.5929 48.8748C87.5929 48.9993 87.5929 49.1241 87.5929 49.2485C85.7177 50.0636 85.0289 49.4406 85.5273 47.38C89.0459 43.9412 92.4887 40.4534 95.8553 36.9163Z" fill="#703F32"/>
<path fill-rule="evenodd" clip-rule="evenodd" d="M25.2493 42.8956C24.0595 47.8341 21.1801 49.1421 16.6113 46.8195C16.1568 46.4312 15.7813 45.9951 15.4846 45.5115C16.0075 44.8489 16.4457 44.1015 16.7991 43.2693C19.5056 40.4273 22.3224 40.3028 25.2493 42.8956Z" fill="#DD5162"/>
<path fill-rule="evenodd" clip-rule="evenodd" d="M102.24 50.7434C99.2117 47.435 95.456 46.2514 90.9729 47.1932C89.6453 47.4409 88.5186 48.0015 87.5928 48.8748C87.3889 48.8524 87.2639 48.728 87.2173 48.5011C88.6542 46.8232 90.407 45.5776 92.4752 44.7641C97.3898 43.5391 101.521 44.785 104.869 48.5011C104.208 49.5348 103.332 50.2822 102.24 50.7434Z" fill="#829241"/>
<path fill-rule="evenodd" clip-rule="evenodd" d="M102.24 50.7434C97.0264 53.9699 92.1441 53.4718 87.593 49.2485C87.593 49.1241 87.593 48.9993 87.593 48.8748C88.5188 48.0015 89.6455 47.4409 90.9731 47.1932C95.4562 46.2514 99.2119 47.435 102.24 50.7434Z" fill="#95AA4E"/>
<path fill-rule="evenodd" clip-rule="evenodd" d="M66.1857 51.4908C63.5297 49.3988 60.9631 49.5232 58.4866 51.8645C57.9049 52.9154 57.592 54.0365 57.5477 55.2278C55.6804 52.2745 56.181 49.783 59.05 47.7537C62.7587 46.5463 65.1371 47.7922 66.1857 51.4908Z" fill="#DCA542"/>
<path fill-rule="evenodd" clip-rule="evenodd" d="M66.1856 51.4908C66.0335 55.8104 63.7801 57.6166 59.4254 56.9095C58.6142 56.5373 57.9881 55.9767 57.5476 55.2278C57.5919 54.0365 57.9048 52.9154 58.4865 51.8645C60.963 49.5232 63.5296 49.3988 66.1856 51.4908Z" fill="#F5C351"/>
<path fill-rule="evenodd" clip-rule="evenodd" d="M62.43 67.9338C62.3049 77.2798 62.43 86.6224 62.8055 95.9617C63.0335 95.9153 63.1585 95.7909 63.1811 95.588C66.456 92.3281 69.8361 89.214 73.3213 86.2453C73.4836 86.6975 73.7341 87.0712 74.0724 87.3664C74.5573 87.2779 74.9329 87.4023 75.1991 87.7402C72.8308 90.2216 70.4524 92.713 68.0634 95.2143C65.9952 96.0278 64.2424 97.2734 62.8055 98.9513C62.9306 99.2006 63.056 99.4495 63.1811 99.6987C62.807 105.737 62.6816 111.841 62.8055 118.01C70.0674 117.948 77.3286 118.01 84.5882 118.197C85.5474 119.093 85.5474 119.965 84.5882 120.813C64.5583 121.062 44.5279 121.062 24.498 120.813C23.3848 119.746 23.5102 118.874 24.8735 118.197C36.5153 118.01 48.1578 117.948 59.801 118.01C59.9152 114.616 59.7901 111.252 59.4254 107.92C59.8033 107.585 59.8033 107.337 59.4254 107.173C58.0212 105.653 56.3939 104.407 54.5431 103.436C52.1425 101.049 49.8891 98.557 47.7829 95.9617C48.0605 96.0106 48.311 95.9482 48.5341 95.7748C48.7538 95.2883 49.0039 94.8521 49.2852 94.4668C52.7772 97.7547 56.22 101.118 59.6132 104.557C59.801 92.7235 59.8637 80.8894 59.801 69.0549C60.3602 68.1935 60.9236 67.3217 61.491 66.439C62.0473 66.8018 62.3605 67.3 62.43 67.9338Z" fill="#6F3C30"/>
<path fill-rule="evenodd" clip-rule="evenodd" d="M62.4299 67.9338C62.8025 67.8695 63.0526 67.9943 63.1811 68.3075C62.6805 77.4009 62.6805 86.4946 63.1811 95.588C63.1585 95.7909 63.0335 95.9153 62.8055 95.9617C62.4299 86.6224 62.3049 77.2798 62.4299 67.9338Z" fill="#916B62"/>
<path fill-rule="evenodd" clip-rule="evenodd" d="M86.4663 78.3975C79.3407 77.4001 75.2095 80.3898 74.0727 87.3665C73.7343 87.0712 73.4838 86.6975 73.3215 86.2453C73.3535 77.4935 77.7352 73.632 86.4663 74.6605C86.4663 75.906 86.4663 77.152 86.4663 78.3975Z" fill="#839443"/>
<path fill-rule="evenodd" clip-rule="evenodd" d="M86.4661 78.3975C85.4761 84.7345 81.7205 87.8485 75.1992 87.7402C74.9329 87.4023 74.5574 87.2779 74.0725 87.3665C75.2093 80.3898 79.3406 77.4001 86.4661 78.3975Z" fill="#95AA4E"/>
<path fill-rule="evenodd" clip-rule="evenodd" d="M48.9096 90.7298C48.9697 91.3647 48.9073 91.9877 48.7218 92.5983C46.8474 88.0672 43.4049 85.8249 38.3938 85.8716C37.6693 85.8866 36.9809 86.011 36.3282 86.2454C36.1423 85.508 36.0796 84.7606 36.1404 84.0031C36.1404 83.6294 36.1404 83.2557 36.1404 82.882C40.803 82.0812 44.6214 83.4515 47.5951 86.9928C48.3594 88.1367 48.7973 89.3826 48.9096 90.7298Z" fill="#829342"/>
<path fill-rule="evenodd" clip-rule="evenodd" d="M36.1403 84.0031C36.0795 84.7606 36.1422 85.508 36.3281 86.2453C36.9808 86.011 37.6692 85.8866 38.3937 85.8716C43.4049 85.8249 46.8473 88.0672 48.7217 92.5983C48.9073 91.9877 48.9696 91.3647 48.9095 90.7298C49.2772 91.8976 49.4026 93.1432 49.2851 94.4669C49.0038 94.8521 48.7536 95.2883 48.5339 95.7748C48.3109 95.9482 48.0604 96.0106 47.7828 95.9617C39.5114 96.079 35.6307 92.0927 36.1403 84.0031Z" fill="#95AA4F"/>
<path fill-rule="evenodd" clip-rule="evenodd" d="M100.362 82.5083C106.382 81.956 108.698 84.5719 107.31 90.3561C105.094 93.1073 102.402 93.6679 99.2353 92.0378C97.1306 89.7219 96.8178 87.168 98.2964 84.3768C98.9769 83.7042 99.6653 83.0812 100.362 82.5083Z" fill="#DA4C5F"/>
<path fill-rule="evenodd" clip-rule="evenodd" d="M22.6202 95.9617C20.1434 93.1021 17.3893 92.7904 14.3578 95.0274C13.6942 95.9781 13.0683 96.9124 12.48 97.8302C11.4393 92.8483 13.4423 90.4193 18.489 90.543C21.2397 91.3453 22.6168 93.1514 22.6202 95.9617Z" fill="#D34158"/>
<path fill-rule="evenodd" clip-rule="evenodd" d="M22.6202 95.9617C21.9139 99.9312 19.5353 101.488 15.4845 100.633C14.0409 100.13 13.0393 99.1953 12.48 97.8302C13.0683 96.9124 13.6942 95.9781 14.3578 95.0274C17.3892 92.7904 20.1434 93.1021 22.6202 95.9617Z" fill="#DD5062"/>
<path fill-rule="evenodd" clip-rule="evenodd" d="M78.9549 100.446C73.9227 96.1665 68.5398 95.6683 62.8057 98.9513C64.2426 97.2734 65.9953 96.0278 68.0636 95.2143C72.8148 93.9467 76.8837 95.0678 80.2694 98.5776C80.2405 99.4267 79.8026 100.049 78.9549 100.446Z" fill="#829342"/>
<path fill-rule="evenodd" clip-rule="evenodd" d="M78.9549 100.446C75.4746 103.062 71.5939 103.747 67.3124 102.502C65.7944 101.748 64.4172 100.814 63.1812 99.6987C63.0562 99.4495 62.9307 99.2006 62.8057 98.9513C68.5398 95.6683 73.9227 96.1665 78.9549 100.446Z" fill="#95A94E"/>
<path fill-rule="evenodd" clip-rule="evenodd" d="M54.5431 103.436C56.3939 104.407 58.0212 105.653 59.4254 107.173C53.7281 104.196 48.4702 104.819 43.6517 109.041C42.9772 108.558 42.3512 107.998 41.7739 107.36C45.2393 103.616 49.4955 102.308 54.5431 103.436Z" fill="#839343"/>
<path fill-rule="evenodd" clip-rule="evenodd" d="M59.4256 107.173C59.8034 107.337 59.8034 107.585 59.4256 107.92C54.4204 112.364 49.1625 112.738 43.6519 109.041C48.4703 104.819 53.7282 104.196 59.4256 107.173Z" fill="#95AA4F"/>
</svg>
